<?xml version="1.0" encoding="utf-8"?>
<!-- Generator: Adobe Illustrator 24.0.1, SVG Export Plug-In . SVG Version: 6.00 Build 0)  -->
<svg version="1.1" id="Layer_1" xmlns="http://www.w3.org/2000/svg" xmlns:xlink="http://www.w3.org/1999/xlink" x="0px" y="0px"
	 viewBox="0 0 123 120" style="enable-background:new 0 0 123 120;" xml:space="preserve">
<style type="text/css">
	.st0{fill:#FFFFFF;}
</style>
<path class="st0" d="M116.3,105.6c-0.7,1.6-1.2,3.4-2.2,4.8c-2.5,3.4-6.2,4.2-10.2,3.7c-2.6-0.3-4.7-1.6-6.6-3.5
	C85.6,98.9,74,87.2,62.3,75.6c-0.3-0.3-0.5-0.7-1-1.3c-0.4,0.6-0.6,1-0.9,1.3C48.6,87.4,36.8,99.2,25,111c-3.6,3.5-9.6,4.3-13.9,1.6
	c-4.6-2.9-5.8-9.7-2.4-14.3c0.5-0.7,1-1.3,1.6-1.8C22.1,84.6,33.9,72.8,45.7,61c0.3-0.3,0.8-0.5,1.1-0.8c0-0.2,0-0.3,0-0.5
	c-0.4-0.2-0.8-0.4-1.1-0.7C34,47.3,22.3,35.5,10.5,23.8c-3-3-4-6.5-2.8-10.6c1.2-4,4.1-6.5,8.2-7.2c3.4-0.6,6.5,0.4,9,2.9
	C36.6,20.5,48.3,32.1,60,43.8c0.4,0.4,0.8,1,1.2,1.5c0.2,0,0.3,0,0.5,0.1c0.3-0.4,0.4-0.8,0.8-1.2C74.1,32.5,85.7,20.9,97.4,9.3
	c5.7-5.7,15.2-3.5,17.5,4.1c1.2,3.8,0.4,7.4-2.5,10.2c-11.7,11.7-23.4,23.5-35.2,35.2c-0.3,0.3-0.7,0.5-1.3,1c0.6,0.5,1,0.8,1.4,1.2
	C88.5,72.1,99.7,83.2,111,94.3c2.3,2.3,4.6,4.6,5.3,8C116.3,103.4,116.3,104.5,116.3,105.6z"/>
</svg>
